<?xml version="1.0" encoding="UTF-8"?>
<svg version="1.1" xmlns="http://www.w3.org/2000/svg" width="100" height="100">
<path d="M0 0 C4.46856853 3.71309112 8.38086173 7.76172346 11 13 C11.53625 12.175 12.0725 11.35 12.625 10.5 C14.86787625 8.18519478 16.09817303 7.98933149 19.37890625 7.6328125 C29.22522983 7.61261491 29.22522983 7.61261491 32 9 C32 9.66 32 10.32 32 11 C32.66 11 33.32 11 34 11 C35.48655198 13.97310397 34.93665734 16.63223018 34.8125 19.9375 C34.69385102 25.95929301 35.61867565 30.52212711 37.99609375 36.0390625 C39.67565767 40.99279576 39.85350174 46.10458135 40.21484375 51.30078125 C41.2071758 55.97609691 42.79196094 57.52748138 46 61 C48.60125029 65.2437316 48.51914281 69.14401799 48 74 C46.6363467 79.5740573 44.25971769 84.98309406 39.20703125 88.109375 C34.9638027 89.8216867 30.48488448 89.5394861 26 89 C22.93812969 87.41438859 20.85985851 86.18194597 18.83203125 83.39453125 C15.90846556 81.1691305 12.71372372 81.48721224 9.1875 81.5 C8.48818359 81.47164063 7.78886719 81.44328125 7.06835938 81.4140625 C1.33697549 81.39261672 -0.88417368 83.10141415 -5 87 C-10.07584719 90.28731048 -16.19940621 89.6607391 -22 89 C-28.4297718 86.73376895 -33.04577043 81.3756148 -37 76 C-37.33257812 75.30003906 -37.66515625 74.60007812 -38.0078125 73.87890625 C-38.98595192 71.66505099 -38.98595192 71.66505099 -42 70 C-43.97482521 64.35764225 -42.18184186 59.315607 -40 54 C-37.82179162 49.94376037 -35.7381309 47.46314096 -31.8125 45 C-28.7447099 43.15000192 -28.7447099 43.15000192 -27.3125 39.625 C-26.59444435 35.84754795 -26.59444435 35.84754795 -29.25 32.8125 C-30.61125 31.4203125 -30.61125 31.4203125 -32 30 C-35.44363198 24.72289844 -34.65327283 18.01415093 -34 12 C-31.93740841 6.29025076 -27.90364028 2.40252591 -23 -1 C-15.69219001 -4.41031133 -6.96184652 -4.13873553 0 0 Z " fill="#ECECEC" transform="translate(45,6)"/>
<path d="M0 0 C0 3.3 0 6.6 0 10 C-0.99 10 -1.98 10 -3 10 C-2.51080078 10.87398437 -2.51080078 10.87398437 -2.01171875 11.765625 C2.4457522 20.12831386 4.90965311 28.32610544 5.3125 37.8125 C5.63527155 42.80469999 7.1407015 44.97099383 10.6328125 48.4296875 C12.64576298 50.7417049 12.85411271 53.00931061 13 56 C12.34 56 11.68 56 11 56 C11.0825 57.051875 11.165 58.10375 11.25 59.1875 C11 63 11 63 9.5625 65.875 C5.94790652 68.87246776 2.64583657 69.43063013 -2 69 C-5.07000887 67.27312001 -6.62822694 66.2756463 -7.625 62.85546875 C-7.74875 62.24316406 -7.8725 61.63085938 -8 61 C-11.85563797 60.99370067 -15.70758026 61.05357126 -19.5625 61.125 C-20.64853516 61.12242188 -21.73457031 61.11984375 -22.85351562 61.1171875 C-29.31808455 61.27438067 -33.15172587 61.85665229 -37.71069336 66.62060547 C-38.13616455 67.07580566 -38.56163574 67.53100586 -39 68 C-42.47370107 69.73685053 -46.20190812 69.46115112 -50 69 C-54.36448348 66.77658389 -57.35063817 64.12122951 -60 60 C-60.75 56.6875 -60.75 56.6875 -61 54 C-62.32 54 -63.64 54 -65 54 C-64.83705489 47.46738245 -63.81293502 42.65372852 -59 38 C-57.18359375 36.890625 -57.18359375 36.890625 -55.3125 35.9375 C-51.75391966 34.29516507 -51.75391966 34.29516507 -50.625 30.8125 C-50.315625 29.4203125 -50.315625 29.4203125 -50 28 C-47.47375766 25.47375766 -40.52222101 26.81445018 -37.125 26.8125 C-36.00996094 26.80025391 -34.89492188 26.78800781 -33.74609375 26.77539062 C-32.67746094 26.77345703 -31.60882813 26.77152344 -30.5078125 26.76953125 C-29.03272217 26.76336792 -29.03272217 26.76336792 -27.52783203 26.75708008 C-25 27 -25 27 -22 29 C-22.33 30.98 -22.66 32.96 -23 35 C-23.66 35 -24.32 35 -25 35 C-25.09087891 36.13888672 -25.09087891 36.13888672 -25.18359375 37.30078125 C-25.26738281 38.29464844 -25.35117187 39.28851563 -25.4375 40.3125 C-25.51871094 41.29863281 -25.59992187 42.28476562 -25.68359375 43.30078125 C-26 46 -26 46 -27 49 C-22.38 49 -17.76 49 -13 49 C-7.87830706 36.19576764 -7.93344039 26.54455596 -12.515625 13.703125 C-13.71276638 10.85207932 -13.71276638 10.85207932 -16.171875 10.109375 C-16.77515625 10.07328125 -17.3784375 10.0371875 -18 10 C-18 9.01 -18 8.02 -18 7 C-16.02 7 -14.04 7 -12 7 C-11.814375 5.5459375 -11.814375 5.5459375 -11.625 4.0625 C-11.41875 3.051875 -11.2125 2.04125 -11 1 C-7.57067929 -0.71466036 -3.78283935 -0.05404056 0 0 Z " fill="#4A4173" transform="translate(73,19)"/>
<path d="M0 0 C1.8046875 0.15234375 1.8046875 0.15234375 4 1 C9.59957076 9.37256394 11.87895208 17.69037659 12.25 27.5625 C12.51588518 32.15699588 12.9561228 34.67457599 16.125 38.0625 C16.68445313 38.54847656 17.24390625 39.03445312 17.8203125 39.53515625 C18.40425781 40.26025391 18.40425781 40.26025391 19 41 C18.57373047 43.09155273 18.57373047 43.09155273 18 45 C8.92265314 47.76004703 0.33217011 48.59329397 -9.125 48.5625 C-9.81078125 48.56467529 -10.4965625 48.56685059 -11.203125 48.5690918 C-25.34875668 48.56418012 -38.41227313 45.98309665 -52 42 C-50.66826986 35.50359055 -49.39832594 32.54470002 -44.17578125 28.34375 C-41.0249089 26.39778934 -38.67418953 26.07654562 -35 26 C-35 25.01 -35 24.02 -35 23 C-35.99 23 -36.98 23 -38 23 C-38 22.01 -38 21.02 -38 20 C-30.41 20 -22.82 20 -15 20 C-15 20.99 -15 21.98 -15 23 C-15.99 23 -16.98 23 -18 23 C-18.09087891 24.55460937 -18.09087891 24.55460937 -18.18359375 26.140625 C-18.26803371 27.51042873 -18.35267997 28.88021975 -18.4375 30.25 C-18.47681641 30.93191406 -18.51613281 31.61382812 -18.55664062 32.31640625 C-18.7678117 35.66265563 -19.12338032 38.76804986 -20 42 C-17.07928415 41.9939903 -14.16922336 41.94663738 -11.25 41.875 C-10.425 41.87757812 -9.6 41.88015625 -8.75 41.8828125 C-6.36138689 41.80576046 -4.29899699 41.65924659 -2 41 C4.06743483 34.04141068 4.43068011 26.46722642 4.3359375 17.58984375 C3.91356145 13.07631368 2.66342462 9.348973 0.875 5.20703125 C0 3 0 3 0 0 Z " fill="#EF655C" transform="translate(63,29)"/>
<path d="M0 0 C3.43641936 2.69340977 5.92519983 4.6680046 6.734375 9.1484375 C6.97108664 13.52760281 6.85168085 16.79795942 4.0625 20.3125 C0.42545217 23.61890712 -1.17756112 24.64472901 -6.0625 25.1875 C-11.06474929 24.67002594 -14.00188401 22.69878456 -17.328125 18.9765625 C-19.73040874 15.15223723 -19.42879348 11.16416726 -18.6875 6.8125 C-17.04135601 3.61166447 -14.71290648 1.56446476 -11.8125 -0.5625 C-7.60840896 -1.79899736 -4.01406157 -1.77365511 0 0 Z " fill="#D5EAFB" transform="translate(38.6875,13.1875)"/>
<path d="M0 0 C3.04310016 2.62813196 4.92096647 4.78728038 6.75 8.375 C7 12.25 7 12.25 6.75 15.375 C3.33024284 16.52306133 1.02851047 16.20883098 -2.453125 15.37890625 C-3.4328125 15.15009766 -4.4125 14.92128906 -5.421875 14.68554688 C-6.43765625 14.43869141 -7.4534375 14.19183594 -8.5 13.9375 C-9.53125 13.69451172 -10.5625 13.45152344 -11.625 13.20117188 C-14.16871633 12.60057219 -16.71011941 11.99158359 -19.25 11.375 C-19.88671875 9.07421875 -19.88671875 9.07421875 -20.25 6.375 C-15.05064965 -1.20119622 -8.62106813 -4.31053407 0 0 Z " fill="#FC7474" transform="translate(34.25,60.625)"/>
<path d="M0 0 C5.00230198 2.45567552 8.49851535 5.9970307 11 11 C11.59057744 16.67862925 11.29370905 21.16922672 8 26 C3.79473011 30.13798557 0.66110361 32.15906972 -5.25 32.3125 C-10.33937369 32.25927779 -13.12381874 31.49801724 -17 28 C-21.39893104 23.00661882 -22.35676337 20.08984773 -22.28125 13.5390625 C-21.73016315 8.56397287 -18.99302299 5.87480597 -15.375 2.6875 C-10.48380548 -0.78782242 -5.87256961 -0.59805518 0 0 Z M-16.640625 8.8359375 C-19.04290874 12.66026277 -18.74129348 16.64833274 -18 21 C-16.35385601 24.20083553 -14.02540648 26.24803524 -11.125 28.375 C-6.42328643 29.75785693 -3.06928681 29.57576982 1.25 27.25 C4.38946495 24.68134686 6.62942849 22.71497046 7.50390625 18.66796875 C7.64424242 12.72707104 6.7287941 9.6042901 2.60546875 5.27734375 C-3.99440402 0.02635008 -11.62069928 3.21840157 -16.640625 8.8359375 Z " fill="#4B4577" transform="translate(38,9)"/>
<path d="M0 0 C1.11503906 -0.01224609 2.23007812 -0.02449219 3.37890625 -0.03710938 C4.44753906 -0.03904297 5.51617187 -0.04097656 6.6171875 -0.04296875 C8.09227783 -0.04913208 8.09227783 -0.04913208 9.59716797 -0.05541992 C12.125 0.1875 12.125 0.1875 15.125 2.1875 C14.795 4.1675 14.465 6.1475 14.125 8.1875 C13.465 8.1875 12.805 8.1875 12.125 8.1875 C12.03412109 9.32638672 12.03412109 9.32638672 11.94140625 10.48828125 C11.85761719 11.48214844 11.77382813 12.47601563 11.6875 13.5 C11.60628906 14.48613281 11.52507813 15.47226562 11.44140625 16.48828125 C11.125 19.1875 11.125 19.1875 10.125 22.1875 C14.745 22.1875 19.365 22.1875 24.125 22.1875 C24.785 20.5375 25.445 18.8875 26.125 17.1875 C27.115 16.8575 28.105 16.5275 29.125 16.1875 C28.5932659 20.01598553 28.02775511 22.55269152 25.125 25.1875 C22.04962051 25.69572443 19.04370362 25.56147387 15.9375 25.4375 C11.5753125 25.31375 11.5753125 25.31375 7.125 25.1875 C7.785 18.9175 8.445 12.6475 9.125 6.1875 C10.115 6.1875 11.105 6.1875 12.125 6.1875 C12.125 5.1975 12.125 4.2075 12.125 3.1875 C4.535 3.1875 -3.055 3.1875 -10.875 3.1875 C-10.875 4.1775 -10.875 5.1675 -10.875 6.1875 C-9.885 6.1875 -8.895 6.1875 -7.875 6.1875 C-7.875 7.1775 -7.875 8.1675 -7.875 9.1875 C-12.825 10.6725 -12.825 10.6725 -17.875 12.1875 C-17.545 10.8675 -17.215 9.5475 -16.875 8.1875 C-16.215 7.8575 -15.555 7.5275 -14.875 7.1875 C-14.17118843 5.20026732 -13.5038189 3.19972047 -12.875 1.1875 C-10.34875766 -1.33874234 -3.39722101 0.00195018 0 0 Z " fill="#473E71" transform="translate(35.875,45.8125)"/>
<path d="M0 0 C5.6555181 0.60503854 11.00213991 1.62185703 16.5 3.0625 C17.59054688 3.3419043 17.59054688 3.3419043 18.703125 3.62695312 C20.46987724 4.08026455 22.23510775 4.5395002 24 5 C21.54474491 9.42525328 19.8273523 11.20157463 15 13 C11.04646156 13.57655769 9.36846207 13.19506815 5.8125 11.3125 C2.99304167 8.99427871 1.48956489 7.31014421 0 4 C0 2.68 0 1.36 0 0 Z " fill="#6C75B8" transform="translate(15,72)"/>
<path d="M0 0 C0.48280024 7.36270368 0.48280024 7.36270368 -1.5625 10.0625 C-5.0211441 11.39274773 -7.4440159 10.85607025 -11 10 C-13.35953094 7.64046906 -13.49141413 6.22104383 -14 3 C-12.4188708 2.49307308 -10.83498617 1.99473557 -9.25 1.5 C-7.92742187 1.08234375 -7.92742187 1.08234375 -6.578125 0.65625 C-4 0 -4 0 0 0 Z " fill="#6971B2" transform="translate(81,74)"/>
<path d="M0 0 C2.9004288 2.63675345 4.72958597 5.1316849 5.30078125 9.078125 C5.34297545 16.89811644 3.56632505 23.26499844 -2 29 C-6.66126253 31.9005673 -11.68576646 31.54242916 -17 31 C-20.1875 29.5 -20.1875 29.5 -22 28 C-21.34 27.67 -20.68 27.34 -20 27 C-19.34 27.33 -18.68 27.66 -18 28 C-13.29302583 28.57425085 -9.87855208 28.45554552 -5.625 26.25 C-0.95526726 22.24737194 0.66377405 19.06441009 2 13 C2.34053365 8.14739554 1.7666938 4.52715285 0 0 Z " fill="#222220" transform="translate(88,64)"/>
<path d="M0 0 C0.84046875 0.01804687 1.6809375 0.03609375 2.546875 0.0546875 C4.61507395 0.10169202 6.68268441 0.17343276 8.75 0.25 C9.245 1.24 9.245 1.24 9.75 2.25 C8.66460937 2.26417969 7.57921875 2.27835937 6.4609375 2.29296875 C5.01558387 2.33989582 3.57027269 2.38814305 2.125 2.4375 C1.05572266 2.44620117 1.05572266 2.44620117 -0.03515625 2.45507812 C-5.78671376 2.69252775 -8.09249716 4.32479316 -12.25 8.25 C-17.27639477 11.53801713 -23.48390641 10.74301172 -29.25 10.25 C-31.66449345 9.50275963 -33.15311574 8.6878635 -35.25 7.25 C-33.3125 6.6875 -33.3125 6.6875 -31.25 6.25 C-30.92 6.58 -30.59 6.91 -30.25 7.25 C-23.99342041 7.80424555 -18.59080962 7.89738218 -13.25 4.25 C-12.72792969 3.5590625 -12.20585938 2.868125 -11.66796875 2.15625 C-7.98936426 -0.7438453 -4.53785537 -0.18435037 0 0 Z " fill="#21211F" transform="translate(52.25,84.75)"/>
<path d="M0 0 C3.79235994 1.48985569 5.80565887 3.58658047 8 7 C7.60546875 9.1640625 7.60546875 9.1640625 7 11 C5.06524329 11.53093324 3.12706845 12.04942317 1.1875 12.5625 C-0.43091797 12.99755859 -0.43091797 12.99755859 -2.08203125 13.44140625 C-5 14 -5 14 -8 13 C-7.59007813 12.48050781 -7.18015625 11.96101563 -6.7578125 11.42578125 C-3.92363424 7.7576223 -1.40171967 4.48550294 0 0 Z " fill="#F97374" transform="translate(74,63)"/>
<path d="M0 0 C2 2 2 2 2.0546875 5.08984375 C1.99539062 6.35957031 1.93609375 7.62929688 1.875 8.9375 C1.7034503 15.11403175 2.58919118 20.04144608 5.02734375 25.73046875 C6.79358232 29.85169207 7.11586427 33.26740123 7.0625 37.75 C7.05347656 38.73484375 7.04445313 39.7196875 7.03515625 40.734375 C7.02355469 41.48203125 7.01195313 42.2296875 7 43 C6.34 42.67 5.68 42.34 5 42 C4.62503983 39.72048022 4.35166259 37.42400623 4.125 35.125 C3.5950637 30.22381163 2.83270693 26.10970117 0.8125 21.5625 C-2.0709614 14.54004789 -0.84947568 7.35904473 0 0 Z " fill="#1E1E1C" transform="translate(78,17)"/>
<path d="M0 0 C7.59 0 15.18 0 23 0 C23 0.99 23 1.98 23 3 C15.41 3 7.82 3 0 3 C0 2.01 0 1.02 0 0 Z " fill="#F9B388" transform="translate(25,49)"/>
<path d="M0 0 C5.61 0 11.22 0 17 0 C17 2.31 17 4.62 17 7 C16.67 5.68 16.34 4.36 16 3 C10.72 3 5.44 3 0 3 C0 2.01 0 1.02 0 0 Z " fill="#B25562" transform="translate(28,52)"/>
<path d="M0 0 C0.99 0 1.98 0 3 0 C3.02578125 0.58007812 3.0515625 1.16015625 3.078125 1.7578125 C3.48567151 7.3708394 4.49364211 10.58877555 8 15 C4 15 4 15 1.765625 13.88671875 C0 12 0 12 -0.390625 9.08203125 C-0.34421875 8.00308594 -0.2978125 6.92414062 -0.25 5.8125 C-0.21390625 4.72582031 -0.1778125 3.63914062 -0.140625 2.51953125 C-0.09421875 1.68808594 -0.0478125 0.85664063 0 0 Z " fill="#474275" transform="translate(31,15)"/>
<path d="M0 0 C3.63 0.66 7.26 1.32 11 2 C11 2.99 11 3.98 11 5 C10 6 10 6 6.625 6.25 C3 6 3 6 1.0625 4.6875 C0 3 0 3 0 0 Z " fill="#423A6F" transform="translate(21,73)"/>
<path d="M0 0 C1.98 0.495 1.98 0.495 4 1 C3.67 2.65 3.34 4.3 3 6 C1.68 5.67 0.36 5.34 -1 5 C-0.67 3.35 -0.34 1.7 0 0 Z " fill="#443C71" transform="translate(73,75)"/>
<path d="M0 0 C1.65 0 3.3 0 5 0 C5 1.32 5 2.64 5 4 C3.35 4 1.7 4 0 4 C0 2.68 0 1.36 0 0 Z " fill="#FB7374" transform="translate(65,22)"/>
<path d="M0 0 C2.97 0.495 2.97 0.495 6 1 C6 1.66 6 2.32 6 3 C4.02 3.33 2.04 3.66 0 4 C0 2.68 0 1.36 0 0 Z " fill="#6064A2" transform="translate(15,72)"/>
</svg>
